<svg width="72" height="72" viewBox="0 0 72 72" fill="none" xmlns="http://www.w3.org/2000/svg">
<g clip-path="url(#clip0_194_323)">
<path d="M35.5128 5.3999C38.4815 5.3999 41.7482 8.10398 44.3771 13.8394C46.9339 19.4178 48.5636 27.2518 48.5636 36.0005C48.5636 44.749 46.9338 52.5822 44.3771 58.1606C41.7482 63.8961 38.4815 66.6001 35.5128 66.6001C32.5442 66.5999 29.2773 63.8961 26.6486 58.1606C24.0918 52.5822 22.4631 44.749 22.463 36.0005C22.463 27.2518 24.0918 19.4178 26.6486 13.8394C29.2773 8.10403 32.5442 5.40014 35.5128 5.3999Z" stroke="#FBD300" stroke-width="3.6"/>
<circle cx="35.9632" cy="36" r="7.2" fill="#FBA000"/>
<path d="M8.40324 21.8592C9.77402 19.226 13.681 17.577 19.9822 17.8935C26.111 18.2014 33.8123 20.3731 41.5725 24.4128C49.3325 28.4525 55.5281 33.515 59.2957 38.3588C63.1692 43.3389 64.0593 47.4851 62.6885 50.1183C61.3175 52.7515 57.4108 54.4007 51.1095 54.0841C44.9808 53.7762 37.2807 51.6039 29.5206 47.5643C21.7604 43.5246 15.5636 38.4626 11.7961 33.6188C7.92259 28.6388 7.03271 24.4925 8.40324 21.8592Z" stroke="#EE1908" stroke-width="3.6"/>
<path d="M62.5968 21.8592C61.226 19.226 57.319 17.577 51.0178 17.8935C44.889 18.2014 37.1877 20.3731 29.4275 24.4128C21.6675 28.4525 15.4719 33.515 11.7043 38.3588C7.83077 43.3389 6.94073 47.4851 8.31152 50.1183C9.68249 52.7515 13.5892 54.4007 19.8905 54.0841C26.0192 53.7762 33.7193 51.6039 41.4794 47.5643C49.2396 43.5246 55.4364 38.4626 59.2039 33.6188C63.0774 28.6388 63.9673 24.4925 62.5968 21.8592Z" stroke="#5841EA" stroke-width="3.6"/>
<circle cx="43.1632" cy="61.2" r="4.5" fill="#5841EA"/>
<circle cx="9.86316" cy="29.7" r="4.5" fill="#FBD300"/>
<circle cx="45.8632" cy="17.1001" r="4.5" fill="#FBA000"/>
</g>
<defs>
<clipPath id="clip0_194_323">
<rect width="72" height="72" fill="white"/>
</clipPath>
</defs>
</svg>
