<svg width="60" height="72" viewBox="0 0 60 72" fill="none" xmlns="http://www.w3.org/2000/svg">
<path fill-rule="evenodd" clip-rule="evenodd" d="M40.3118 29.3648C40.3118 29.0529 40.059 28.8 39.7471 28.8H27.3236C27.0117 28.8 26.7589 29.0529 26.7589 29.3648V37.3819C26.7589 37.6106 26.6203 37.8161 26.4108 37.9078C20.1333 40.6548 15.7471 46.9211 15.7471 54.2118C15.7471 64.036 23.7112 72 33.5354 72C43.3595 72 51.3236 64.036 51.3236 54.2118C51.3236 46.9211 46.9375 40.6548 40.6599 37.9078C40.4504 37.8161 40.3118 37.6106 40.3118 37.3819V29.3648Z" fill="#DFE3FF"/>
<rect x="25.0648" y="26.2588" width="16.9412" height="5.08235" rx="1.12941" fill="#C5CCFF"/>
<path d="M45.9589 54.2117C46.5827 54.2117 47.0932 54.7182 47.0413 55.3398C46.9249 56.7331 46.5934 58.1023 46.0566 59.3982C45.3755 61.0425 44.3772 62.5365 43.1187 63.795C41.8602 65.0536 40.3662 66.0519 38.7218 66.733C37.0775 67.4141 35.3152 67.7646 33.5354 67.7646C31.7556 67.7646 29.9932 67.4141 28.3489 66.733C26.7046 66.0519 25.2105 65.0536 23.952 63.795C22.6935 62.5365 21.6952 61.0425 21.0141 59.3982C20.4773 58.1023 20.1458 56.7331 20.0295 55.3398C19.9775 54.7182 20.4881 54.2117 21.1118 54.2117L45.9589 54.2117Z" fill="#5841EA"/>
<circle cx="38.1942" cy="53.7883" r="3.81176" fill="#7D7FFC"/>
<circle cx="28.0295" cy="47.0118" r="2.96471" fill="#7D7FFC"/>
<circle cx="38.1942" cy="41.9294" r="2.11765" fill="#7D7FFC"/>
<path d="M15.474 1.19792C16.1356 0.536327 17.2083 0.536328 17.8699 1.19792L28.9506 12.2787C29.9378 13.2658 29.3743 14.9563 27.9923 15.1537L25.6164 15.4931C25.2535 15.545 24.9173 15.7131 24.6581 15.9723L13.6771 26.9532C13.0155 27.6148 11.9429 27.6148 11.2813 26.9532L1.69791 17.3699C1.03632 16.7083 1.03632 15.6356 1.69791 14.974L15.474 1.19792Z" fill="#FFE1D4"/>
<path d="M15.8734 7.18764C16.0939 6.96711 16.0939 6.60955 15.8734 6.38902L13.0782 3.59387L12.2796 4.39249L15.0748 7.18764C15.2953 7.40817 15.6529 7.40817 15.8734 7.18764Z" fill="#FFC0A9"/>
<path d="M14.0765 8.98451C14.2971 8.76398 14.2971 8.40643 14.0765 8.1859L11.2814 5.39075L10.4828 6.18936L13.2779 8.98451C13.4984 9.20504 13.856 9.20504 14.0765 8.98451Z" fill="#FFC0A9"/>
<path d="M12.2796 10.7814C12.5002 10.5609 12.5002 10.2033 12.2796 9.98277L9.4845 7.18762L8.68588 7.98624L11.481 10.7814C11.7016 11.0019 12.0591 11.0019 12.2796 10.7814Z" fill="#FFC0A9"/>
<path d="M6.6032 12.9242C6.76374 12.7839 6.97129 12.7093 7.18441 12.7153L21.0879 13.1064C21.5463 13.1192 21.9111 13.4945 21.9111 13.9531L21.9111 16.0212C21.9111 16.2458 21.8218 16.4613 21.663 16.6201L13.5256 24.7575C13.1948 25.0883 12.6585 25.0883 12.3277 24.7575L3.98389 16.4137C3.63726 16.0671 3.65634 15.4995 4.02545 15.1769L6.6032 12.9242Z" fill="#EE1908"/>
<rect x="37.2742" y="8.53052" width="6.77647" height="22.8706" rx="1.69412" transform="rotate(-45 37.2742 8.53052)" fill="#FFFD86"/>
<rect x="36.0765" y="9.72827" width="10.1647" height="5.08235" rx="1.69412" transform="rotate(-45 36.0765 9.72827)" fill="#FFF441"/>
<path d="M45.0604 9.92738C44.8399 9.70685 44.4824 9.70685 44.2618 9.92738L41.4687 12.7205L42.2673 13.5192L45.0604 10.726C45.281 10.5055 45.281 10.1479 45.0604 9.92738Z" fill="#FFF441"/>
<path d="M46.8579 11.725C46.6374 11.5045 46.2798 11.5045 46.0593 11.725L43.2662 14.5181L44.0648 15.3168L46.8579 12.5236C47.0785 12.3031 47.0785 11.9455 46.8579 11.725Z" fill="#FFF441"/>
<path d="M47.0615 15.7688C46.5279 15.2352 46.9058 14.3228 47.6605 14.3228H50.0546C50.2792 14.3228 50.4946 14.412 50.6535 14.5708L55.1987 19.1144C55.5295 19.4452 55.5296 19.9816 55.1988 20.3125L54.0009 21.5103C53.6701 21.8411 53.1338 21.8411 52.803 21.5103L47.0615 15.7688Z" fill="#FBD300"/>
<path d="M39.4648 18.2117C39.4648 19.3812 38.5167 20.3293 37.3471 20.3293C36.1776 20.3293 35.2295 19.3812 35.2295 18.2117C35.2295 17.0421 36.9236 14.3999 37.3471 14.3999C37.7707 14.3999 39.4648 17.0421 39.4648 18.2117Z" fill="#FBD300"/>
<path d="M30.9942 21.6001C30.9942 22.7696 30.0461 23.7177 28.8766 23.7177C27.707 23.7177 26.7589 22.7696 26.7589 21.6001C26.7589 20.4306 28.453 17.7883 28.8766 17.7883C29.3001 17.7883 30.9942 20.4306 30.9942 21.6001Z" fill="#EE1908"/>
</svg>
