<svg width="72" height="72" viewBox="0 0 72 72" fill="none" xmlns="http://www.w3.org/2000/svg">
<path d="M34.4472 11.8807L13.4395 22.8047C12.7775 23.149 12.3622 23.833 12.3622 24.5792V45.8378C12.3622 46.5283 12.7183 47.1699 13.3042 47.5351L34.4254 60.7005C35.0127 61.0666 35.7475 61.1031 36.3682 60.7969L57.2626 50.489C57.9454 50.1521 58.3777 49.4567 58.3777 48.6954V24.5792C58.3777 23.833 57.9624 23.149 57.3004 22.8047L36.2927 11.8807C35.7143 11.5799 35.0256 11.5799 34.4472 11.8807Z" stroke="#5841EA" stroke-width="4" stroke-linecap="round"/>
<circle cx="35.3702" cy="10.9023" r="6.90233" fill="#EE1908"/>
<circle cx="11.9023" cy="21.9846" r="6.90233" fill="#FBD300"/>
<circle cx="11.9023" cy="46.9477" r="6.90233" fill="#EE1908"/>
<circle cx="59.2982" cy="46.9097" r="6.90233" fill="#EE1908"/>
<circle cx="35.1783" cy="61.0976" r="6.90233" fill="#FBD300"/>
<circle cx="58.8381" cy="23.3647" r="6.90233" fill="#FBD300"/>
</svg>
