<svg width="72" height="72" viewBox="0 0 72 72" fill="none" xmlns="http://www.w3.org/2000/svg">
<rect x="7.99817" y="13.998" width="25.3009" height="25.3009" rx="3.2" fill="#5841EA"/>
<rect x="7.99817" y="39.2991" width="25.3009" height="25.3009" rx="3.2" fill="#EE1908"/>
<rect x="33.2991" y="39.2991" width="25.3009" height="25.3009" rx="3.2" fill="#FBD300"/>
<rect x="42.4504" y="7" width="21.5327" height="21.5327" rx="2.4" fill="#FBA000"/>
<path d="M18.6127 33.2H16.0207V21.36H18.6127V26.032H23.1887V21.36H25.7807V33.2H23.1887V28.432H18.6127V33.2Z" fill="white"/>
<path d="M51.5005 22H49.4525V12.528H51.5005L55.4941 18.5568V12.528H57.5421V22H55.4941L51.5005 15.984V22Z" fill="white"/>
<path d="M18.6205 46.16V55.6H23.2925V58H16.0285V46.16H18.6205ZM25.8311 48.752C25.0471 48.752 24.4231 48.128 24.4231 47.344C24.4231 46.56 25.0471 45.952 25.8311 45.952C26.5991 45.952 27.2231 46.56 27.2231 47.344C27.2231 48.128 26.5991 48.752 25.8311 48.752ZM24.6151 58V50H27.0791V58H24.6151Z" fill="white"/>
<path d="M37.3083 58V46.16H42.2363C44.6203 46.16 46.0603 47.408 46.0603 49.44C46.0603 50.704 45.4843 51.632 44.4123 52.096C45.5803 52.48 46.2043 53.392 46.2043 54.736C46.2043 56.832 44.7963 58 42.2363 58H37.3083ZM41.9643 48.432H39.9003V51.008H41.9643C42.8923 51.008 43.4043 50.544 43.4043 49.696C43.4043 48.864 42.9083 48.432 41.9643 48.432ZM42.0923 53.184H39.9003V55.728H42.0923C43.0523 55.728 43.5483 55.296 43.5483 54.416C43.5483 53.616 43.0363 53.184 42.0923 53.184ZM51.3569 58.208C48.9409 58.208 47.2129 56.448 47.2129 53.984C47.2129 51.488 48.8929 49.744 51.3089 49.744C53.8209 49.744 55.3889 51.392 55.3889 54V54.624L49.5809 54.656C49.7249 55.712 50.3169 56.208 51.4049 56.208C52.3329 56.208 52.9889 55.872 53.1649 55.296H55.4209C55.1329 57.072 53.5489 58.208 51.3569 58.208ZM51.3249 51.744C50.3489 51.744 49.8049 52.176 49.6129 53.136H52.9409C52.9409 52.288 52.3169 51.744 51.3249 51.744Z" fill="white"/>
</svg>
