<svg width="73" height="72" viewBox="0 0 73 72" fill="none" xmlns="http://www.w3.org/2000/svg">
<path fill-rule="evenodd" clip-rule="evenodd" d="M54.4663 9.6C54.4663 9.26863 54.1977 9 53.8663 9H44.8663C44.5349 9 44.2663 9.26863 44.2663 9.6V30.8408C44.2663 31.11 44.0863 31.3454 43.8289 31.4241C36.0926 33.7912 30.4663 40.9885 30.4663 49.5C30.4663 59.9382 38.9281 68.4 49.3663 68.4C59.8045 68.4 68.2663 59.9382 68.2663 49.5C68.2663 40.9885 62.64 33.7912 54.9037 31.4241C54.6463 31.3454 54.4663 31.11 54.4663 30.8408V9.6Z" fill="#FFEA85"/>
<rect x="42.4663" y="3.6001" width="13.8" height="5.4" rx="1.2" fill="#FFD946"/>
<path d="M64.0663 49.8001C64.729 49.8001 65.2711 50.3381 65.2202 50.9989C65.0939 52.637 64.7095 54.2474 64.0788 55.7699C63.2948 57.6626 62.1457 59.3823 60.6972 60.8309C59.2486 62.2795 57.5288 63.4286 55.6361 64.2126C53.7435 64.9965 51.7149 65.4 49.6663 65.4C47.6177 65.4 45.5891 64.9965 43.6964 64.2126C41.8037 63.4286 40.084 62.2795 38.6354 60.8309C37.1868 59.3823 36.0377 57.6626 35.2538 55.7699C34.6231 54.2474 34.2387 52.637 34.1124 50.9989C34.0615 50.3381 34.6035 49.8 35.2663 49.8L64.0663 49.8001Z" fill="#FBA000"/>
<path d="M49.6663 19.2001C49.6663 18.8687 49.9349 18.6001 50.2663 18.6001H54.4663V19.8001H50.2663C49.9349 19.8001 49.6663 19.5315 49.6663 19.2001Z" fill="#FFD946"/>
<path d="M49.6663 22.8002C49.6663 22.4688 49.9349 22.2002 50.2663 22.2002H54.4663V23.4002H50.2663C49.9349 23.4002 49.6663 23.1316 49.6663 22.8002Z" fill="#FFD946"/>
<path d="M49.6663 15.6C49.6663 15.2686 49.9349 15 50.2663 15H54.4663V16.2H50.2663C49.9349 16.2 49.6663 15.9314 49.6663 15.6Z" fill="#FFD946"/>
<path fill-rule="evenodd" clip-rule="evenodd" d="M25.6667 22.1999C25.6667 21.8685 25.398 21.5999 25.0667 21.5999H16.6667C16.3353 21.5999 16.0667 21.8685 16.0667 22.1999V33.2481C16.0667 33.5136 15.8915 33.7465 15.6392 33.8291C8.92026 36.0269 4.06665 42.3465 4.06665 49.7999C4.06665 59.0782 11.5883 66.5999 20.8666 66.5999C30.145 66.5999 37.6666 59.0782 37.6666 49.7999C37.6666 42.3465 32.813 36.0269 26.0941 33.8291C25.8418 33.7465 25.6667 33.5136 25.6667 33.2481V22.1999Z" fill="#FFE1D4"/>
<rect x="14.8667" y="16.7998" width="12" height="4.8" rx="1.2" fill="#FFC0A9"/>
<path d="M16.1407 12.0662C16.1012 11.7107 16.3794 11.3999 16.737 11.3999H24.9963C25.3539 11.3999 25.6321 11.7107 25.5926 12.0662L25.0667 16.7999H16.6667L16.1407 12.0662Z" fill="#E27A00"/>
<path d="M32.8666 49.7998C33.5294 49.7998 34.072 50.338 34.0156 50.9984C33.8961 52.3998 33.5674 53.7768 33.039 55.0808C32.3606 56.7551 31.3662 58.2764 30.1126 59.5579C28.859 60.8393 27.3708 61.8558 25.7329 62.5493C24.095 63.2429 22.3395 63.5998 20.5667 63.5998C18.7938 63.5998 17.0383 63.2429 15.4004 62.5493C13.7625 61.8558 12.2743 60.8393 11.0207 59.5579C9.76712 58.2764 8.77271 56.7551 8.09428 55.0808C7.56587 53.7768 7.23719 52.3998 7.11766 50.9984C7.06134 50.338 7.60391 49.7998 8.26665 49.7998L32.8666 49.7998Z" fill="#EE1908"/>
<path d="M20.8667 28.8C20.8667 28.4686 21.1353 28.2 21.4667 28.2H25.6667V29.4H21.4667C21.1353 29.4 20.8667 29.1313 20.8667 28.8Z" fill="#FFC0A9"/>
<path d="M20.8667 25.1999C20.8667 24.8685 21.1353 24.5999 21.4667 24.5999H25.6667V25.7999H21.4667C21.1353 25.7999 20.8667 25.5312 20.8667 25.1999Z" fill="#FFC0A9"/>
</svg>
