<svg width="73" height="72" viewBox="0 0 73 72" fill="none" xmlns="http://www.w3.org/2000/svg">
<rect x="5.90002" y="3.6001" width="61.2" height="64.8" rx="3.6" fill="#DFE3FF"/>
<path d="M5.90002 7.2001C5.90002 5.21187 7.5118 3.6001 9.50002 3.6001H63.5C65.4883 3.6001 67.1 5.21187 67.1 7.2001V13.5001H5.90002V7.2001Z" fill="#3E2CA7"/>
<rect x="9.5" y="8.1001" width="54" height="9.9" rx="1.8" fill="#FBD300"/>
<rect x="52.7" y="21.6001" width="10.8" height="5.4" rx="1.8" fill="#FBA000"/>
<rect x="38.3" y="21.6001" width="10.8" height="5.4" rx="1.8" fill="#FBA000"/>
<rect x="9.5" y="30.6001" width="9" height="9" rx="1.8" fill="#7D7FFC"/>
<rect x="9.5" y="43.2" width="9" height="9" rx="1.8" fill="#7D7FFC"/>
<rect x="9.5" y="55.8" width="9" height="9" rx="1.8" fill="#7D7FFC"/>
<rect x="23.9" y="30.6001" width="9" height="9" rx="1.8" fill="#7D7FFC"/>
<rect x="23.9" y="43.2" width="9" height="9" rx="1.8" fill="#7D7FFC"/>
<rect x="23.9" y="55.8" width="9" height="9" rx="1.8" fill="#7D7FFC"/>
<rect x="39.2" y="30.6001" width="9" height="9" rx="1.8" fill="#7D7FFC"/>
<rect x="39.2" y="43.2" width="9" height="9" rx="1.8" fill="#7D7FFC"/>
<rect x="39.2" y="55.8" width="9" height="9" rx="1.8" fill="#7D7FFC"/>
<rect x="54.5" y="30.6001" width="9" height="9" rx="1.8" fill="#7D7FFC"/>
<rect x="54.5" y="43.2" width="9" height="21.6" rx="1.8" fill="#EE1908"/>
</svg>
