<svg width="160" height="160" viewBox="0 0 160 160" fill="none" xmlns="http://www.w3.org/2000/svg">
<circle cx="80" cy="80" r="75" fill="#EDF1FF"/>
<circle cx="30" cy="30" r="2.5" fill="#EDF1FF"/>
<circle cx="37.5" cy="30" r="2.5" fill="#EDF1FF"/>
<circle cx="45" cy="30" r="2.5" fill="#EDF1FF"/>
<path fill-rule="evenodd" clip-rule="evenodd" d="M34.9999 13C29.4771 13 24.9999 17.4772 24.9999 23V26.104L17.0406 30.7107C15.6514 31.5148 15.6536 33.5211 17.0445 34.3221L24.9999 38.9038V43C24.9999 48.5228 29.4771 53 34.9999 53H107C112.523 53 117 48.5228 117 43V23C117 17.4772 112.523 13 107 13H34.9999Z" fill="white"/>
<rect width="64" height="8" transform="translate(38 29)" fill="white"/>
<circle cx="42" cy="33" r="4" fill="#5841EA"/>
<circle cx="56" cy="33" r="4" fill="#5841EA"/>
<circle cx="70" cy="33" r="4" fill="#5841EA"/>
<circle cx="84" cy="33" r="4" fill="#5841EA"/>
<circle cx="98" cy="33" r="4" fill="#5841EA"/>
<path fill-rule="evenodd" clip-rule="evenodd" d="M31.9999 105C26.4771 105 21.9999 109.477 21.9999 115V118.104L14.0406 122.711C12.6514 123.515 12.6536 125.521 14.0445 126.322L21.9999 130.904V135C21.9999 140.523 26.4771 145 31.9999 145H118C123.523 145 128 140.523 128 135V115C128 109.477 123.523 105 118 105H31.9999Z" fill="#3E2CA7"/>
<circle cx="39" cy="125" r="4" fill="#EDF1FF"/>
<circle cx="53" cy="125" r="4" fill="#EDF1FF"/>
<circle cx="67" cy="125" r="4" fill="#EDF1FF"/>
<circle cx="81" cy="125" r="4" fill="#EDF1FF"/>
<circle cx="95" cy="125" r="4" fill="#EDF1FF"/>
<circle cx="109" cy="125" r="4" fill="#EDF1FF"/>
<path fill-rule="evenodd" clip-rule="evenodd" d="M139 59C144.523 59 149 63.4772 149 69V72.104L156.959 76.7107C158.348 77.5148 158.346 79.5211 156.955 80.3221L149 84.9038V89C149 94.5228 144.523 99 139 99H85C79.4771 99 75 94.5228 75 89V69C75 63.4772 79.4771 59 85 59H139Z" fill="#FBD300"/>
<rect width="50" height="8" transform="matrix(-1 0 0 1 136 75)" fill="#FBD300"/>
<circle cx="4" cy="4" r="4" transform="matrix(-1 0 0 1 136 75)" fill="#3E2CA7"/>
<circle cx="4" cy="4" r="4" transform="matrix(-1 0 0 1 122 75)" fill="#3E2CA7"/>
<circle cx="4" cy="4" r="4" transform="matrix(-1 0 0 1 108 75)" fill="#3E2CA7"/>
<circle cx="4" cy="4" r="4" transform="matrix(-1 0 0 1 93.9999 75)" fill="#3E2CA7"/>
<path d="M60.7444 93.7701C60.7444 94.8747 59.8489 95.7701 58.7444 95.7701H52.7566C51.6521 95.7701 50.7566 94.8747 50.7566 93.7701V93.6737C50.7566 85.3791 55.7955 81.0951 60.5644 77.358C64.6135 74.0766 68.3027 70.9775 68.3027 65.6909C68.3027 59.4927 64.5235 55.391 58.2249 55.391C52.4617 55.391 48.3095 59.3225 47.5518 65.2449C47.4117 66.3405 46.532 67.2404 45.4274 67.2404H38C36.8954 67.2404 35.9914 66.3413 36.0757 65.2399C36.9918 53.274 46.1259 45 58.4949 45C71.9018 45 80 52.8388 80 64.9617C80 74.7147 73.7914 79.3633 68.5726 83.1004C64.1636 86.2906 60.7444 89.0251 60.7444 93.6737V93.7701ZM56.1554 114C52.1063 114 48.8671 110.719 48.8671 106.799C48.8671 102.789 52.1063 99.5073 56.1554 99.5073C60.1145 99.5073 63.4438 102.789 63.4438 106.799C63.4438 110.627 60.1145 114 56.1554 114Z" fill="#685FF5"/>
</svg>
