<svg width="160" height="160" viewBox="0 0 160 160" fill="none" xmlns="http://www.w3.org/2000/svg">
<circle cx="80" cy="80" r="75" fill="#EDF1FF"/>
<path fill-rule="evenodd" clip-rule="evenodd" d="M26 55C20.4772 55 16 59.4772 16 65V128C16 133.523 20.4772 138 26 138H67.0891L76.0331 143.309C77.5865 144.231 81.4627 144.23 83.0103 143.307L91.9055 138H133C138.523 138 143 133.523 143 128V65C143 59.4772 138.523 55 133 55H26Z" fill="#3E2CA7"/>
<path d="M26 49.9409C26 48.1913 27.1327 46.6486 28.8178 46.178C33.8999 44.759 44.8309 42 53 42C63.9973 42 80 47 80 47V129C80 129 63.9973 124 53 124C45.9569 124 36.8607 126.051 31.23 127.526C28.6196 128.209 26 126.258 26 123.56V49.9409Z" fill="#F6F7F9"/>
<path d="M80 47C80 47 96.0027 42 107 42C115.169 42 126.1 44.759 131.182 46.178C132.867 46.6486 134 48.1913 134 49.9409V123.56C134 126.258 131.38 128.209 128.77 127.526C123.139 126.051 114.043 124 107 124C96.0027 124 80 129 80 129V47Z" fill="white"/>
<rect x="37" y="78" width="30" height="5" rx="2.5" fill="#C5CCFF"/>
<rect x="37" y="67" width="6" height="5" rx="2.5" fill="#C5CCFF"/>
<rect x="37" y="89" width="30" height="5" rx="2.5" fill="#C5CCFF"/>
<rect x="37" y="100" width="30" height="5" rx="2.5" fill="#C5CCFF"/>
<rect x="37" y="111" width="30" height="5" rx="2.5" fill="#C5CCFF"/>
<rect width="10" height="5" rx="2.5" transform="matrix(-1 0 0 1 47 56)" fill="#C5CCFF"/>
<rect x="117" y="67" width="6" height="5" rx="2.5" fill="#C5CCFF"/>
<rect width="30" height="5" rx="2.5" transform="matrix(-1 0 0 1 123 78)" fill="#C5CCFF"/>
<rect width="30" height="5" rx="2.5" transform="matrix(-1 0 0 1 123 89)" fill="#C5CCFF"/>
<rect width="10" height="5" rx="2.5" transform="matrix(-1 0 0 1 123 56)" fill="#C5CCFF"/>
<rect width="30" height="5" rx="2.5" transform="matrix(-1 0 0 1 123 100)" fill="#C5CCFF"/>
<rect width="30" height="5" rx="2.5" transform="matrix(-1 0 0 1 123 111)" fill="#C5CCFF"/>
<path d="M108.467 61.1L90 38.6667V18.6667H93.3333C95.1667 18.6667 96.6667 17.1667 96.6667 15.3333C96.6667 13.5 95.1667 12 93.3333 12H66.6667C64.8333 12 63.3333 13.5 63.3333 15.3333C63.3333 17.1667 64.8333 18.6667 66.6667 18.6667H70V38.6667L51.5333 61.1C50.4667 62.4 50 63.8667 50 65.3333C50.0333 68.7667 52.7333 72 56.6667 72H103.333C107.3 72 110 68.7667 110 65.3333C110 63.8667 109.533 62.4 108.467 61.1Z" fill="#FBD300"/>
</svg>
