<svg width="160" height="160" viewBox="0 0 160 160" fill="none" xmlns="http://www.w3.org/2000/svg">
<circle cx="80" cy="80" r="75" fill="#DFE3FF"/>
<rect x="17.5" y="17.5" width="125" height="125" rx="10" fill="white"/>
<path d="M17.5 27.5C17.5 21.9772 21.9772 17.5 27.5 17.5H132.5C138.023 17.5 142.5 21.9772 142.5 27.5V42.5H17.5V27.5Z" fill="#3E2CA7"/>
<path d="M29.9747 117.497C30.0447 115.893 31.8243 114.967 33.178 115.829L42.3154 121.651C43.6691 122.513 43.5816 124.517 42.1579 125.259L32.5479 130.261C31.1242 131.002 29.4321 129.924 29.5021 128.321L29.9747 117.497Z" fill="#5841EA"/>
<rect x="49" y="121" width="81" height="5" rx="2.5" fill="#DFE3FF"/>
<rect x="68" y="117" width="4" height="13" rx="2" fill="#5841EA"/>
<circle cx="30" cy="30" r="2.5" fill="#DFE3FF"/>
<circle cx="37.5" cy="30" r="2.5" fill="#DFE3FF"/>
<circle cx="45" cy="30" r="2.5" fill="#DFE3FF"/>
<path d="M95.3624 101.406C93.0127 104.491 96.5 107.979 99.585 105.629C101.935 102.544 98.4474 99.0568 95.3624 101.406Z" fill="#FBD300"/>
<g style="mix-blend-mode:screen" opacity="0.25">
<path d="M96.2849 102.329C96.6601 101.954 96.8121 101.498 96.6245 101.31C96.437 101.122 95.9807 101.274 95.6055 101.65C95.2304 102.025 95.0783 102.481 95.2659 102.669C95.4535 102.856 95.9097 102.704 96.2849 102.329Z" fill="black"/>
</g>
<path d="M96.1475 79.4246H106.936" stroke="#3E2CA7" stroke-width="2" stroke-miterlimit="10"/>
<path d="M52.1221 79.5116H62.9109" stroke="#3E2CA7" stroke-width="2" stroke-miterlimit="10"/>
<path d="M63.7083 57.7031L70.8143 65.8212" stroke="#3E2CA7" stroke-width="2" stroke-miterlimit="10"/>
<path d="M95.8723 57.3551L88.7662 65.4732" stroke="#3E2CA7" stroke-width="2" stroke-miterlimit="10"/>
<path d="M95.6983 101.233L88.5922 93.1149" stroke="#3E2CA7" stroke-width="2" stroke-miterlimit="10"/>
<path d="M63.5342 101.581L70.6403 93.4629" stroke="#3E2CA7" stroke-width="2" stroke-miterlimit="10"/>
<path d="M71.7566 65.4935L88.6355 65.6674L89.2351 65.6742L89.5125 66.2054L96.1248 78.9086L96.3552 79.3519L96.1394 79.8031L89.9617 92.6801L89.6892 93.2474H71.0388L70.7634 92.6927L64.4119 79.9027L64.1912 79.4574L64.4119 79.0131L70.8503 66.0492L71.1296 65.4867L71.7566 65.4935Z" stroke="#3E2CA7" stroke-width="2" stroke-miterlimit="10"/>
<path d="M72.2672 68.7246L72.6571 67.9396L73.5335 67.9486" stroke="#3E2CA7" stroke-width="0.47812" stroke-miterlimit="10"/>
<path d="M74.1671 67.9401L86.5218 68.0674" stroke="#3E2CA7" stroke-width="0.47812" stroke-miterlimit="10" stroke-dasharray="0.96 0.96"/>
<path d="M86.8386 68.0858L87.7151 68.0948L88.1198 68.8723" stroke="#3E2CA7" stroke-width="0.47812" stroke-miterlimit="10"/>
<path d="M88.4532 69.2401L93.0938 78.1548" stroke="#3E2CA7" stroke-width="0.47812" stroke-miterlimit="10" stroke-dasharray="0.96 0.96"/>
<path d="M93.2095 78.6497L93.6142 79.4271L93.2351 80.2174" stroke="#3E2CA7" stroke-width="0.47812" stroke-miterlimit="10"/>
<path d="M92.9554 80.8002L88.6221 89.8331" stroke="#3E2CA7" stroke-width="0.47812" stroke-miterlimit="10" stroke-dasharray="0.96 0.96"/>
<path d="M88.4823 90.1245L88.1032 90.9148H87.2267" stroke="#3E2CA7" stroke-width="0.47812" stroke-miterlimit="10"/>
<path d="M86.6758 90.9148H73.7313" stroke="#3E2CA7" stroke-width="0.47812" stroke-miterlimit="10" stroke-dasharray="0.96 0.96"/>
<path d="M73.4559 90.9148H72.5794L72.1896 90.1298" stroke="#3E2CA7" stroke-width="0.47812" stroke-miterlimit="10"/>
<path d="M71.9021 89.5509L67.4468 80.5792" stroke="#3E2CA7" stroke-width="0.47812" stroke-miterlimit="10" stroke-dasharray="0.96 0.96"/>
<path d="M67.3031 80.2898L66.9133 79.5047L67.3031 78.7197" stroke="#3E2CA7" stroke-width="0.47812" stroke-miterlimit="10"/>
<path d="M67.5395 78.2438L72.149 68.9625" stroke="#3E2CA7" stroke-width="0.47812" stroke-miterlimit="10" stroke-dasharray="0.96 0.96"/>
<path d="M70.9667 70.5904C73.6151 70.5904 75.7619 68.4435 75.7619 65.7952C75.7619 63.1469 73.6151 61 70.9667 61C68.3184 61 66.1715 63.1469 66.1715 65.7952C66.1715 68.4435 68.3184 70.5904 70.9667 70.5904Z" fill="#5841EA"/>
<g style="mix-blend-mode:screen" opacity="0.25">
<path d="M68.9888 63.8173C69.613 63.1931 69.866 62.434 69.5539 62.1219C69.2418 61.8098 68.4827 62.0628 67.8585 62.687C67.2343 63.3112 66.9813 64.0703 67.2934 64.3824C67.6055 64.6945 68.3645 64.4415 68.9888 63.8173Z" fill="black"/>
</g>
<path d="M88.0609 70.5904C90.7092 70.5904 92.8561 68.4435 92.8561 65.7952C92.8561 63.1469 90.7092 61 88.0609 61C85.4126 61 83.2657 63.1469 83.2657 65.7952C83.2657 68.4435 85.4126 70.5904 88.0609 70.5904Z" fill="#5841EA"/>
<g style="mix-blend-mode:screen" opacity="0.25">
<path d="M86.0829 63.8173C86.7072 63.1931 86.9602 62.434 86.6481 62.1219C86.3359 61.8098 85.5769 62.0628 84.9527 62.687C84.3285 63.3112 84.0755 64.0703 84.3876 64.3824C84.6997 64.6945 85.4587 64.4415 86.0829 63.8173Z" fill="black"/>
</g>
<path d="M95.5764 84.2953C98.2247 84.2953 100.372 82.1484 100.372 79.5001C100.372 76.8517 98.2247 74.7048 95.5764 74.7048C92.9281 74.7048 90.7812 76.8517 90.7812 79.5001C90.7812 82.1484 92.9281 84.2953 95.5764 84.2953Z" fill="#5841EA"/>
<g style="mix-blend-mode:screen" opacity="0.25">
<path d="M93.5984 77.5221C94.2227 76.8979 94.4757 76.1388 94.1636 75.8267C93.8514 75.5146 93.0924 75.7676 92.4682 76.3919C91.844 77.0161 91.591 77.7751 91.9031 78.0872C92.2152 78.3993 92.9742 78.1463 93.5984 77.5221Z" fill="black"/>
</g>
<path d="M64.7775 84.2953C67.4258 84.2953 69.5727 82.1484 69.5727 79.5001C69.5727 76.8517 67.4258 74.7048 64.7775 74.7048C62.1291 74.7048 59.9822 76.8517 59.9822 79.5001C59.9822 82.1484 62.1291 84.2953 64.7775 84.2953Z" fill="#5841EA"/>
<g style="mix-blend-mode:screen" opacity="0.25">
<path d="M62.7995 77.5221C63.4237 76.8979 63.6767 76.1388 63.3646 75.8267C63.0525 75.5146 62.2935 75.7676 61.6692 76.3919C61.045 77.0161 60.792 77.7751 61.1041 78.0872C61.4162 78.3993 62.1753 78.1463 62.7995 77.5221Z" fill="black"/>
</g>
<path d="M70.9667 98C73.6151 98 75.7619 95.8531 75.7619 93.2048C75.7619 90.5564 73.6151 88.4095 70.9667 88.4095C68.3184 88.4095 66.1715 90.5564 66.1715 93.2048C66.1715 95.8531 68.3184 98 70.9667 98Z" fill="#5841EA"/>
<g style="mix-blend-mode:screen" opacity="0.25">
<path d="M68.9888 91.2268C69.613 90.6026 69.866 89.8436 69.5539 89.5314C69.2418 89.2193 68.4827 89.4723 67.8585 90.0966C67.2343 90.7208 66.9813 91.4798 67.2934 91.7919C67.6055 92.104 68.3646 91.851 68.9888 91.2268Z" fill="black"/>
</g>
<path d="M88.2082 98C90.8566 98 93.0035 95.8531 93.0035 93.2048C93.0035 90.5564 90.8566 88.4095 88.2082 88.4095C85.5599 88.4095 83.413 90.5564 83.413 93.2048C83.413 95.8531 85.5599 98 88.2082 98Z" fill="#5841EA"/>
<g style="mix-blend-mode:screen" opacity="0.25">
<path d="M86.2303 91.2268C86.8545 90.6026 87.1075 89.8436 86.7954 89.5314C86.4833 89.2193 85.7242 89.4723 85.1 90.0966C84.4758 90.7208 84.2228 91.4798 84.5349 91.7919C84.847 92.104 85.6061 91.851 86.2303 91.2268Z" fill="black"/>
</g>
<path d="M106.412 77.3926C104.063 80.4776 107.55 83.9649 110.635 81.6152C112.985 78.5302 109.497 75.0429 106.412 77.3926Z" fill="#FBD300"/>
<g style="mix-blend-mode:screen" opacity="0.25">
<path d="M107.335 78.3151C107.71 77.9399 107.862 77.4836 107.674 77.2961C107.487 77.1085 107.031 77.2605 106.655 77.6357C106.28 78.0109 106.128 78.4671 106.316 78.6547C106.503 78.8423 106.96 78.6902 107.335 78.3151Z" fill="black"/>
</g>
<path d="M93.8833 54.7709C91.5336 57.8559 95.0209 61.3432 98.1059 58.9935C100.456 55.9085 96.9683 52.4212 93.8833 54.7709Z" fill="#FBD300"/>
<g style="mix-blend-mode:screen" opacity="0.25">
<path d="M94.8057 55.6933C95.1809 55.3182 95.333 54.8619 95.1454 54.6743C94.9578 54.4868 94.5016 54.6388 94.1264 55.014C93.7512 55.3892 93.5992 55.8454 93.7867 56.033C93.9743 56.2206 94.4306 56.0685 94.8057 55.6933Z" fill="black"/>
</g>
<path d="M61.6038 55.3799C59.2541 58.4649 62.7414 61.9522 65.8264 59.6025C68.1761 56.5175 64.6888 53.0302 61.6038 55.3799Z" fill="#FBD300"/>
<g style="mix-blend-mode:screen" opacity="0.25">
<path d="M62.5263 56.3024C62.9015 55.9272 63.0535 55.4709 62.8659 55.2834C62.6783 55.0958 62.2221 55.2478 61.8469 55.623C61.4718 55.9982 61.3197 56.4544 61.5073 56.642C61.6949 56.8296 62.1511 56.6775 62.5263 56.3024Z" fill="black"/>
</g>
<path d="M49.7709 77.3055C47.4212 80.3905 50.9085 83.8778 53.9935 81.5281C56.3431 78.4431 52.8559 74.9559 49.7709 77.3055Z" fill="#FBD300"/>
<g style="mix-blend-mode:screen" opacity="0.25">
<path d="M50.6933 78.228C51.0685 77.8528 51.2206 77.3966 51.033 77.209C50.8454 77.0214 50.3892 77.1735 50.014 77.5487C49.6388 77.9239 49.4867 78.3801 49.6743 78.5677C49.8619 78.7553 50.3181 78.6032 50.6933 78.228Z" fill="black"/>
</g>
<path d="M60.2987 100.623C57.949 103.708 61.4363 107.196 64.5213 104.846C66.871 101.761 63.3837 98.2737 60.2987 100.623Z" fill="#FBD300"/>
<g style="mix-blend-mode:screen" opacity="0.25">
<path d="M61.2212 101.546C61.5963 101.171 61.7484 100.714 61.5608 100.527C61.3732 100.339 60.917 100.491 60.5418 100.867C60.1666 101.242 60.0146 101.698 60.2022 101.886C60.3897 102.073 60.846 101.921 61.2212 101.546Z" fill="black"/>
</g>
</svg>
