<svg width="160" height="160" viewBox="0 0 160 160" fill="none" xmlns="http://www.w3.org/2000/svg">
<g clip-path="url(#clip0_156_1427)">
<circle cx="80" cy="80" r="75" fill="#DFE3FF"/>
<rect x="62" y="33" width="68" height="89" rx="10" fill="#F6F7F9"/>
<path d="M62 43C62 37.4772 66.4772 33 72 33H120C125.523 33 130 37.4772 130 43V51H62V43Z" fill="#362B84"/>
<circle cx="30" cy="30" r="2.5" fill="#C5CCFF"/>
<circle cx="37.5" cy="30" r="2.5" fill="#C5CCFF"/>
<circle cx="45" cy="30" r="2.5" fill="#C5CCFF"/>
<rect x="18" y="17" width="96" height="125" rx="10" fill="white"/>
<path d="M18 27C18 21.4772 22.4772 17 28 17H104C109.523 17 114 21.4772 114 27V42H18V27Z" fill="#3E2CA7"/>
<circle cx="30.5" cy="29.5" r="2.5" fill="#DFE3FF"/>
<circle cx="38" cy="29.5" r="2.5" fill="#DFE3FF"/>
<circle cx="45.5" cy="29.5" r="2.5" fill="#DFE3FF"/>
<rect x="48" y="71" width="54" height="5" rx="2.5" fill="#DFE3FF"/>
<rect x="48" y="92" width="54" height="5" rx="2.5" fill="#DFE3FF"/>
<rect x="48" y="113" width="54" height="5" rx="2.5" fill="#DFE3FF"/>
<path d="M32.398 77.36H30.37L33.538 68.48H35.434L38.59 77.36H36.526L35.902 75.488H33.034L32.398 77.36ZM34.234 71.96L33.598 73.856H35.35L34.714 71.96C34.618 71.66 34.51 71.312 34.474 71.096C34.438 71.3 34.342 71.636 34.234 71.96Z" fill="#101566"/>
<path d="M34.328 119.664C31.664 119.664 29.996 117.9 29.996 115.092C29.996 112.32 31.76 110.496 34.412 110.496C36.632 110.496 38.228 111.768 38.504 113.76H36.452C36.188 112.872 35.432 112.368 34.364 112.368C32.924 112.368 32.048 113.388 32.048 115.08C32.048 116.748 32.936 117.792 34.364 117.792C35.456 117.792 36.26 117.252 36.5 116.376H38.516C38.204 118.356 36.548 119.664 34.328 119.664Z" fill="#101566"/>
<path d="M114 103.97C100.74 103.97 90 114.71 90 127.97C90 141.23 100.74 151.97 114 151.97C127.26 151.97 138 141.23 138 127.97C138 114.71 127.26 103.97 114 103.97ZM126.75 140.69C119.7 147.71 108.3 147.71 101.28 140.69L114 127.97V109.97C118.62 109.97 123.21 111.74 126.72 115.25C133.77 122.27 133.77 133.67 126.75 140.69Z" fill="white"/>
<path d="M126.72 115.25C123.21 111.74 118.62 109.97 114 109.97V127.97L101.28 140.69C108.3 147.71 119.7 147.71 126.75 140.69C133.77 133.67 133.77 122.27 126.72 115.25ZM114 97.97C97.44 97.97 84 111.41 84 127.97C84 144.53 97.44 157.97 114 157.97C130.56 157.97 144 144.53 144 127.97C144 111.41 130.56 97.97 114 97.97ZM114 151.97C100.74 151.97 90 141.23 90 127.97C90 114.71 100.74 103.97 114 103.97C127.26 103.97 138 114.71 138 127.97C138 141.23 127.26 151.97 114 151.97Z" fill="#5841EA"/>
<path d="M35 88.3334C31.32 88.3334 28.3334 91.32 28.3334 95C28.3334 98.68 31.32 101.667 35 101.667C38.68 101.667 41.6667 98.68 41.6667 95C41.6667 91.32 38.68 88.3334 35 88.3334ZM33.1934 97.86L30.8 95.4667C30.54 95.2067 30.54 94.7867 30.8 94.5267C31.06 94.2667 31.48 94.2667 31.74 94.5267L33.6667 96.4467L38.2534 91.86C38.5134 91.6 38.9334 91.6 39.1934 91.86C39.4534 92.12 39.4534 92.54 39.1934 92.8L34.1334 97.86C33.88 98.12 33.4534 98.12 33.1934 97.86Z" fill="#FBD300"/>
</g>
<defs>
<clipPath id="clip0_156_1427">
<rect width="160" height="160" fill="white"/>
</clipPath>
</defs>
</svg>
