<svg width="22" height="23" viewBox="0 0 22 23" fill="none" xmlns="http://www.w3.org/2000/svg">
<path d="M9.16665 15.625L14.6666 11.5L9.16665 7.37498V15.625ZM11 2.33331C5.93998 2.33331 1.83331 6.43998 1.83331 11.5C1.83331 16.56 5.93998 20.6666 11 20.6666C16.06 20.6666 20.1666 16.56 20.1666 11.5C20.1666 6.43998 16.06 2.33331 11 2.33331ZM11 18.8333C6.95748 18.8333 3.66665 15.5425 3.66665 11.5C3.66665 7.45748 6.95748 4.16665 11 4.16665C15.0425 4.16665 18.3333 7.45748 18.3333 11.5C18.3333 15.5425 15.0425 18.8333 11 18.8333Z" fill="#101566"/>
</svg>
